<svg viewBox="0 0 1600 1600" xmlns="http://www.w3.org/2000/svg"><path fill="currentColor" d="M4325 14330l-1000-1000h-711c-657 0-716-1-780-18 -295-79-494-332-497-632 -1-101 32-272 907-4640 723-3610 916-4559 947-4655 97-296 260-556 501-803 118-120 1044-935 1146-1009 138-99 336-183 520-220 133-27 8065-28 8208-1 550 105 966 517 1081 1072 16 75 17 373 21 3916 2 2706 0 3867-8 3942 -25 250-114 482-259 674 -25 34-449 513-941 1066s-915 1030-940 1060c-85 103-190 176-322 224 -50 18-92 19-788 22l-736 3 -664 664c-366 366-669 665-675 665s-309-299-675-665l-665-665h-330 -330l-1000 1000c-550 550-1002 1000-1005 1000s-455-450-1005-1000Zm6044-6420c-552-2761-826-4109-842-4150 -98-242-298-393-556-421 -112-11-3829-12-3941 0 -258 27-459 179-557 421 -16 41-290 1389-842 4150l-818 4090h4187 4187l-818-4090Z" transform="matrix(.1 0 0-.1 0 1600)"/></svg>