<svg viewBox="0 0 1600 1600" xmlns="http://www.w3.org/2000/svg"><g transform="matrix(.1 0 0-.1 0 1600)"><g fill="currentColor"><path d="M7175 15324c-465-37-600-62-794-150 -280-128-553-410-661-683 -14-34-27-60-30-59 -3 2-66 33-140 70 -330 165-662 191-1015 81 -324-101-1116-646-1516-1043 -211-209-335-442-383-719 -20-120-21-348 0-456 30-165 34-145-26-145 -71 0-230-34-337-71 -341-121-599-355-763-694 -199-410-369-930-487-1485 -25-119-25-391 0-510 60-278 197-525 395-710l87-82 -111-112c-339-340-461-774-355-1266 126-586 385-1312 566-1587 72-108 252-291 355-360 198-132 488-233 672-233 35 0 37-2 29-23 -40-105-54-411-26-572 47-268 201-558 388-732 35-32 484-506 998-1053s966-1024 1005-1059c169-155 375-257 627-313 102-23 102-23 3962-23 3664 0 3865 1 3955 18 545 103 962 517 1077 1071 25 118 32 8281 8 8466 -35 268-140 501-324 719 -49 58-563 506-2331 2030 -577 498-1146 872-1462 960 -341 96-725 49-1022-125 -85-50-85-50-110 16 -77 199-270 435-465 568 -307 211-557 261-1316 267 -220 1-422 1-450-1Zm858-1345c125-11 140-14 148-33 5-12 52-199 104-416 53-217 99-398 103-401 4-4 66-19 137-34 262-56 593-162 825-264 181-80 168-76 193-54 234 208 631 533 646 528 31-9 281-167 428-268 207-144 553-426 553-451 0-6-72-187-161-402l-161-391 117-134c195-222 391-496 525-732 65-116-1-108 526-67 213 17 391 27 394 23 11-13 104-236 155-372 80-215 178-559 220-766 6-30 6-30-361-255 -366-225-366-225-360-285 3-33 11-107 16-165 14-136 14-605 0-740 -26-262-66-207 330-449 193-118 357-219 366-225 43-32-161-714-327-1091 -41-94-41-94-88-89 -126 13-806 62-812 58 -4-2-32-49-64-105 -147-259-345-531-579-793l-59-66 163-394c89-217 161-398 159-404 -15-38-399-343-615-489 -257-172-372-237-392-221 -9 7-150 126-313 265 -164 138-306 257-317 264 -17 11-32 7-99-23 -285-131-694-262-989-318 -61-12-61-12-160-422 -54-225-101-414-105-419 -17-28-529-52-831-39 -185 8-398 26-404 33 0 1-45 185-99 409 -55 225-101 412-105 417 -3 5-71 24-150 41 -284 62-576 157-843 274 -71 31-133 56-138 56 -9 0-545-449-631-528 -27-24-27-24-110 23 -294 168-932 648-915 689 3 6 77 186 166 400l161 390 -58 60c-189 198-443 546-592 810 -55 97-55 97-105 91 -27-3-201-16-385-30 -184-13-354-27-377-30 -43-5-43-4-67 43 -84 166-229 584-302 872 -72 283-108 227 306 482 195 120 358 222 362 226s0 70-9 147c-23 197-22 707 0 904 9 80 16 145 14 146 -1 1-166 103-365 225 -420 258-381 195-307 485 88 347 293 915 330 915 6 0 182-13 390-30 209-16 398-30 421-30 41 0 41 0 128 148 151 253 351 525 539 730l75 83 -60 147c-34 81-107 260-164 397l-104 250 63 58c93 88 356 297 489 390s428 277 443 277c6 0 156-124 334-275 177-151 325-275 328-275s78 31 167 69c274 117 586 216 859 272 107 22 107 22 117 58 5 20 50 207 101 416 50 209 96 383 101 386 6 4 81 12 167 18s172 13 191 15c71 8 589-3 723-15Z"/><path d="M7350 11703c-174-17-255-28-380-53 -422-84-811-255-1180-520 -111-79-275-218-275-232 0-6 325-237 723-515l722-504 91 36c300 119 674 121 943 6 26-12 55-21 63-21s275 181 592 402 650 453 741 516 167 117 170 119c7 6-51 56-186 158 -451 343-1002 556-1564 605 -107 9-380 11-460 3Z"/><path d="M9605 9346l-750-523 -1-154c-2-447-228-863-597-1099l-86-55 -1-912c0-889 1-913 19-913 27 0 200 45 311 82 1105 361 1907 1313 2075 2462 77 524-1 1144-197 1585 -23 51-23 51-773-473Z"/><path d="M4710 9718c-344-901-215-1951 338-2758 400-583 1057-1054 1695-1215 34-9 70-18 80-21 16-5 17 43 17 904v910l-82 58c-345 240-559 646-561 1061v133l-271 188c-149 104-465 324-702 489 -238 166-443 308-457 317 -25 17-25 17-57-66Z"/></g></g></svg>