<svg viewBox="0 0 1600 1600" xmlns="http://www.w3.org/2000/svg"><path fill="currentColor" d="M9660 15315c-72-18-136-46-207-91 -66-41-2913-2878-2990-2979 -161-210-183-479-60-720 38-76 66-105 549-590l508-510 -943-942 -942-943 -510 508c-458 457-517 512-580 544 -248 128-518 107-730-55 -98-75-2936-2923-2979-2990 -153-236-139-558 35-777 126-160 3517-4046 3574-4096 183-162 416-276 659-322 85-16 351-17 4271-17 4180 0 4180 0 4282 23 544 120 918 493 1046 1044 22 93 22 93 25 4508 2 3208 0 4446-8 4527 -37 367-224 709-510 928 -30 23-878 624-1885 1335 -1720 1215-1837 1299-1945 1404 -125 122-217 179-345 211 -73 18-239 18-315 0Zm540-1972c1277-1286 1304-1314 1342-1388 62-122 73-167 73-300 0-185-25-244-238-555C9658 8590 7550 6479 4960 4675c-301-209-332-228-430-259 -225-72-439-22-631 148 -46 41-430 421-854 845l-770 771 942 942 943 943 497-497c547-545 564-559 738-616 86-29 301-23 393 10 153 55 98 3 1673 1578 1487 1485 1487 1485 1533 1580 97 199 101 399 11 588 -52 110-59 118-584 645l-486 487 940 940c517 517 942 940 945 940s174-170 380-377Z" transform="matrix(.1 0 0-.1 0 1600)"/></svg>